# xmcd
#
# Track frame offsets: 
#        150
#        15270
#        29700
#        51335
#        65525
#        77765
#        89515
#        100610
#        113987
#
# Disc length: 2036 seconds
#
# Revision: 14
# Processed by: cddbd v1.5.2PL0 Copyright (c) Steve Scherf et al.
# Submitted via: ExactAudioCopy v1.3
#
DISCID=6e07f209
DTITLE=The Doors - The soft parade
DYEAR=1969
DGENRE=Blues
TTITLE0=Tell all the people
TTITLE1=Touch me
TTITLE2=Shaman's blues
TTITLE3=Do it
TTITLE4=Easy ride
TTITLE5=Wild child
TTITLE6=Runnin' blue
TTITLE7=Wishful sinful
TTITLE8=The soft parade
EXTD=Remastered 1999 YEAR: 1969
EXTT0=
EXTT1=
EXTT2=
EXTT3=
EXTT4=
EXTT5=
EXTT6=
EXTT7=
EXTT8=
PLAYORDER=
